<?xml version="1.0" encoding="UTF-8"?>
<svg width="160px" height="169px" viewBox="0 0 160 169" version="1.1" xmlns="http://www.w3.org/2000/svg" xmlns:xlink="http://www.w3.org/1999/xlink">
    <!-- Generator: Sketch 51.3 (57544) - http://www.bohemiancoding.com/sketch -->
    <title>Trafico</title>
    <desc>Created with Sketch.</desc>
    <defs>
        <linearGradient x1="50%" y1="0%" x2="50%" y2="100%" id="linearGradient-1">
            <stop stop-color="#E1D385" offset="0%"></stop>
            <stop stop-color="#FFEEA3" offset="100%"></stop>
        </linearGradient>
    </defs>
    <g id="Page-1" stroke="none" stroke-width="1" fill="none" fill-rule="evenodd">
        <g id="Trafico">
            <g id="Ears" transform="translate(22.215280, 84.418064)" fill-rule="nonzero">
                <path d="M98.1915374,33.3229199 C89.8652504,33.3229199 83.0895901,26.347322 83.0895901,17.772224 C83.0895901,9.1971259 89.8652504,2.22152799 98.1915374,2.22152799 C109.063695,2.22152799 113.297928,4.91846298 113.297928,11.8496303 C113.297928,19.2739769 110.138915,33.3229199 98.1915374,33.3229199 Z M17.3279184,33.3229199 C5.3805408,33.3229199 2.22152799,19.2739769 2.22152799,11.8496303 C2.22152799,4.92290604 6.45576035,2.22152799 17.3279184,2.22152799 C25.6542053,2.22152799 32.4298657,9.1971259 32.4298657,17.772224 C32.4298657,26.347322 25.6542053,33.3229199 17.3279184,33.3229199 Z" id="Shape" fill="#DEB974"></path>
                <path d="M98.1915374,4.44305599 C110.090041,4.44305599 111.0764,7.94418411 111.0764,11.8496303 C111.0764,18.5053282 108.383908,31.1013919 98.1915374,31.1013919 C91.0870908,31.1013919 85.306675,25.1210386 85.306675,17.772224 C85.306675,10.4234094 91.0870908,4.44305599 98.1915374,4.44305599 Z M17.3279184,4.44305599 C24.4323649,4.44305599 30.2127807,10.4234094 30.2127807,17.772224 C30.2127807,25.1210386 24.4323649,31.1013919 17.3279184,31.1013919 C7.13554792,31.1013919 4.44305599,18.5053282 4.44305599,11.8496303 C4.44305599,7.94418411 5.42941442,4.44305599 17.3279184,4.44305599 Z M98.1915374,0 C88.6211948,0 80.863619,7.95751328 80.863619,17.772224 C80.863619,27.5869346 88.6211948,35.5444479 98.1915374,35.5444479 C111.089729,35.5444479 115.519456,21.664341 115.519456,11.8496303 C115.519456,2.03491964 107.76188,0 98.1915374,0 Z M17.3279184,0 C7.75757576,0 0,2.03491964 0,11.8496303 C0,21.664341 4.46527127,35.5444479 17.3279184,35.5444479 C26.898261,35.5444479 34.6558367,27.5869346 34.6558367,17.772224 C34.6558367,7.95751328 26.898261,0 17.3279184,0 Z" id="Shape" fill="#967A44"></path>
            </g>
            <g id="Face" transform="translate(31.101392, 26.658336)" fill-rule="nonzero">
                <path d="M48.8736159,139.956264 C43.2353778,139.956264 38.0059009,137.614773 34.1448853,133.367212 L33.7672255,132.954007 L33.247388,132.767399 C14.6887431,126.165018 2.22152799,108.517199 2.22152799,88.8611198 L2.22152799,23.9080843 C2.22152799,12.2894929 11.6719081,2.83466972 23.2904995,2.83466972 L74.4567323,2.83466972 C86.0753237,2.83466972 95.5257038,12.2850498 95.5257038,23.9080843 L95.5257038,88.8611198 C95.5257038,108.517199 83.0584887,126.165018 64.5042869,132.767399 L63.9800062,132.954007 L63.6023465,133.367212 C59.7413308,137.614773 54.5118539,139.956264 48.8736159,139.956264 Z" id="Shape" fill="#F5CE85"></path>
                <path d="M74.4567323,5.06064077 C84.8490402,5.06064077 93.3041758,13.5157763 93.3041758,23.9080843 L93.3041758,88.8611198 C93.3041758,107.579715 81.4323302,124.383352 63.7578534,130.679163 L62.7092922,131.052379 L61.9628588,131.874345 C58.5194904,135.650942 53.8720539,137.734736 48.8736159,137.734736 C43.8751779,137.734736 39.2277413,135.650942 35.7843729,131.874345 L35.0379395,131.052379 L33.9893783,130.679163 C16.3149016,124.383352 4.44305599,107.579715 4.44305599,88.8611198 L4.44305599,23.9080843 C4.44305599,13.5157763 12.8981915,5.06064077 23.2904995,5.06064077 L74.4567323,5.06064077 Z M74.4567323,0.617584783 L23.2904995,0.617584783 C10.4278524,0.617584783 0,11.0454372 0,23.9080843 L0,88.8611198 C0,110.098927 13.573536,128.124406 32.5009546,134.864522 C36.5619077,139.32535 42.3600958,142.177792 48.8736159,142.177792 C55.387136,142.177792 61.185324,139.32535 65.2462772,134.864522 C84.1736957,128.124406 97.7472318,110.098927 97.7472318,88.8611198 L97.7472318,23.9080843 C97.7472318,11.0454372 87.3193794,0.617584783 74.4567323,0.617584783 Z" id="Shape" fill="#967A44"></path>
            </g>
            <g id="Hair" transform="translate(22.215280, 39.987504)" fill-rule="nonzero">
                <path d="M104.411816,59.9812559 L104.411816,26.6583359 C104.411816,22.295255 102.976709,17.7944392 100.12871,13.2180916 C107.073206,15.9594571 113.297928,20.2159048 113.297928,26.6583359 C113.297928,43.1376306 107.250929,56.2135444 105.30487,59.9812559 L104.411816,59.9812559 Z M10.1346107,59.9812559 C8.21076747,56.6089764 2.22152799,44.6838141 2.22152799,26.6583359 C2.22152799,16.0038877 28.6088375,7.33548544 61.0475893,7.33548544 C64.437641,7.33548544 67.769933,7.43767573 71.0178069,7.63761325 C63.7711826,11.7652123 53.4544066,15.550696 39.9875039,15.550696 C26.0229789,15.550696 11.10764,21.9709119 11.10764,39.9875039 L11.10764,59.9812559 L10.1346107,59.9812559 Z M87.208303,5.08729911 C85.8842723,4.84293103 84.5246971,4.62077823 83.1340206,4.41639765 C83.7382762,3.87434482 84.2492277,3.39005172 84.671318,2.97240446 C85.3511056,3.50557118 86.2219445,4.21646013 87.208303,5.08729911 Z" id="Shape" fill="#A6714E"></path>
                <path d="M61.0475893,9.55701343 C61.2519699,9.55701343 61.4563504,9.55701343 61.660731,9.55701343 C55.7336943,11.7607692 48.5181714,13.329168 39.9875039,13.329168 C20.8023881,13.329168 8.88611198,23.5437537 8.88611198,39.9875039 L8.88611198,51.9837551 C6.73567288,46.2966434 4.44305599,37.6548995 4.44305599,26.6583359 C4.44305599,18.571974 27.6891249,9.55701343 61.0475893,9.55701343 Z M105.038287,18.1276684 C108.481655,20.2958798 111.0764,23.1038911 111.0764,26.6583359 C111.0764,36.6063383 108.797112,45.2836266 106.633344,51.2817522 L106.633344,26.6583359 C106.633344,23.8458815 106.100177,20.9978826 105.038287,18.1276684 Z M84.4180638,0 C84.4180638,0 82.1698775,2.68360582 77.686834,5.96258114 C83.5960984,6.59349509 89.1899059,7.57541046 94.1705717,8.93054254 C89.4609323,3.49668506 84.4180638,0 84.4180638,0 Z M61.0475893,5.11395744 C31.110278,5.11395744 0,12.9070776 0,26.6583359 C0,49.0691103 8.88611198,62.2027839 8.88611198,62.2027839 L13.329168,62.2027839 C13.329168,62.2027839 13.329168,46.1544656 13.329168,39.9875039 C13.329168,23.645944 26.4939429,17.772224 39.9875039,17.772224 C58.0485265,17.772224 70.6312611,11.1254122 77.686834,5.96258114 C72.3285085,5.39386997 66.7080426,5.11395744 61.0475893,5.11395744 Z M94.1705717,8.93054254 C98.3070568,13.6979416 102.190288,19.9582075 102.190288,26.6583359 C102.190288,33.4428824 102.190288,62.2027839 102.190288,62.2027839 L106.633344,62.2027839 C106.633344,62.2027839 115.519456,47.0786213 115.519456,26.6583359 C115.519456,18.1809851 106.806623,12.3650248 94.1705717,8.93054254 Z" id="Shape" fill="#7A4F34"></path>
            </g>
            <g id="Eyes" transform="translate(48.824742, 93.030928)" fill="#36404D" fill-rule="nonzero">
                <circle id="Eye-right" cx="55.5870735" cy="6.93783193" r="6.66458398"></circle>
                <circle id="Eye-left" cx="6.7134576" cy="6.93783193" r="6.66458398"></circle>
            </g>
            <g id="Hat" fill-rule="nonzero">
                <path d="M24.2546426,59.9812559 C23.2949426,54.2541567 18.6963796,50.4197994 14.2355514,46.7009615 C8.65951612,42.0490819 2.90131556,37.2505814 2.27928772,28.2933805 C19.3139644,23.1349925 32.8341838,17.4789823 43.7641015,12.9070776 C58.5905793,6.70457149 69.3116734,2.22152799 79.9750078,2.22152799 C90.6383422,2.22152799 101.354993,6.70457149 116.185914,12.9070776 C127.115832,17.4789823 140.636051,23.1305495 157.670728,28.2933805 C157.044257,37.2505814 151.286056,42.0490819 145.714464,46.7009615 C141.253636,50.4197994 136.655073,54.2541567 135.695373,59.9812559 L24.2546426,59.9812559 Z" id="Shape" fill="#8BB7F0"></path>
                <path d="M12.6836622,45.3996759 C28.2785632,39.3977202 53.2585515,35.5089035 81.414558,35.5089035 C108.389526,35.5089035 132.449332,39.0783201 148.133931,44.6556827 C147.33433,45.3486827 146.522435,46.0263638 145.714464,46.7009615 C141.253636,50.4197994 136.655073,54.2541567 135.695373,59.9812559 L24.2546426,59.9812559 C23.2949426,54.2541567 18.6963796,50.4197994 14.2355514,46.7009615 C13.7184077,46.2695277 13.1996971,45.8368327 12.6836622,45.3996759 Z" id="Combined-Shape" fill="#6D9DDB" opacity="0.7"></path>
                <path d="M79.9750078,4.44305599 C90.1940366,4.44305599 100.737408,8.85501059 115.328404,14.9553265 C125.925093,19.3850533 138.943247,24.8322399 155.253705,29.8751085 C154.116283,36.7973897 149.326669,40.791697 144.288243,44.994828 C140.160644,48.4381964 135.58874,52.2503384 133.93148,57.7597279 L26.0140928,57.7597279 C24.3568329,52.2503384 19.7893714,48.4381964 15.6573293,44.994828 C10.6233469,40.7961401 5.82928946,36.7973897 4.69186712,29.8751085 C21.0023257,24.8322399 34.0204797,19.3850533 44.6171682,14.9553265 C59.2126072,8.85501059 69.755979,4.44305599 79.9750078,4.44305599 Z M79.9750078,0 C60.2744976,0 40.6006456,14.599882 0,26.6583359 C0,46.7187337 22.2152799,48.9269326 22.2152799,62.2027839 L137.734736,62.2027839 C137.734736,48.9269326 159.950016,46.7187337 159.950016,26.6583359 C119.34937,14.599882 99.6755181,0 79.9750078,0 Z" id="Shape" fill="#4E7AB5"></path>
            </g>
            <g id="Hat-shade" transform="translate(22.215280, 55.236072)" fill-rule="nonzero">
                <ellipse id="Oval" fill="#3C5A7D" cx="57.7597279" cy="20.2958798" rx="57.7597279" ry="17.772224"></ellipse>
                <ellipse id="Oval" fill="#68809B" cx="57.7597279" cy="16.8480683" rx="57.7597279" ry="16.1016349"></ellipse>
                <path d="M19.993752,0.302127807 L95.5257038,0.302127807 C105.341032,0.302127807 113.297928,8.2590235 113.297928,18.0743518 L2.22152799,18.0743518 L2.22152799,18.0743518 C2.22152799,8.2590235 10.1784237,0.302127807 19.993752,0.302127807 Z" id="Rectangle-path" fill="#B0C1D4"></path>
                <path d="M111.0764,15.8528238 L4.44305599,15.8528238 L4.44305599,15.4383005 C4.44305599,9.91545303 8.92020849,5.43830053 14.443056,5.43830053 L101.0764,5.43830053 C106.599247,5.43830053 111.0764,9.91545303 111.0764,15.4383005 L111.0764,15.8528238 Z M0,19.5139019 L115.519456,19.5139019 L115.519456,19.5139019 C115.519456,8.91334738 106.926008,0.319900031 96.3254539,0.319900031 L19.1940019,0.319900031 C8.59344735,0.319900031 -1.29819352e-15,8.91334738 0,19.5139019 Z" id="Shape" fill="#68809B"></path>
            </g>
            <g id="Plate" transform="translate(66.639175, 22.432990)">
                <path d="M26.6650005,19.4205977 C26.6650005,22.6234724 13.3358326,25.8008261 13.3358326,25.8008261 C13.3358326,25.8008261 0.00666458398,22.5171352 0.00666458398,19.4205977 C0.00666458398,14.3737027 0.00666458398,9.32680759 0.00666458398,4.27991253 L0.00666458398,4.27991253 C0.00666458398,2.07077353 1.79752558,0.279912527 4.00666458,0.279912527 L22.6650005,0.279912527 C24.8741395,0.279912527 26.6650005,2.07077353 26.6650005,4.27991253 C26.6650005,9.32680759 26.6650005,14.3737027 26.6650005,19.4205977 Z" id="Shape" fill="#EADEAA" fill-rule="nonzero"></path>
                <path d="M0.00666458398,13.4390288 C4.80426077,13.2003397 9.73901208,13.0759138 14.7753827,13.0759138 C18.809889,13.0759138 22.7791842,13.1557603 26.6650005,13.3102292 L26.6650005,19.7760422 C26.6650005,23.1216634 13.3358326,26.4406262 13.3358326,26.4406262 C13.3358326,26.4406262 0.00666458398,23.010587 0.00666458398,19.7760422 L0.00666458398,13.4390288 Z" id="Glow" fill="url(#linearGradient-1)" fill-rule="nonzero" opacity="0.7"></path>
                <path d="M13.1958763,5.27835052 C9.00371134,5.27835052 5.60824742,8.67381443 5.60824742,12.8659794 C5.60824742,16.2235052 7.78020619,19.0593814 10.7962887,20.0647423 C11.1756701,20.131134 11.3179381,19.9035052 11.3179381,19.7043299 C11.3179381,19.5241237 11.3084536,18.9265979 11.3084536,18.291134 C9.40206186,18.6420619 8.90886598,17.8263918 8.7571134,17.3995876 C8.67175258,17.1814433 8.30185567,16.5080412 7.97938144,16.3278351 C7.71381443,16.185567 7.33443299,15.8346392 7.96989691,15.8251546 C8.56742268,15.8156701 8.9942268,16.3752577 9.13649485,16.6028866 C9.81938144,17.7505155 10.9101031,17.4280412 11.3463918,17.228866 C11.4127835,16.7356701 11.6119588,16.4037113 11.8301031,16.2140206 C10.1418557,16.0243299 8.37773196,15.3698969 8.37773196,12.4676289 C8.37773196,11.6424742 8.67175258,10.9595876 9.15546392,10.4284536 C9.07958763,10.2387629 8.81402062,9.46103093 9.23134021,8.41773196 C9.23134021,8.41773196 9.86680412,8.2185567 11.3179381,9.19546392 C11.9249485,9.02474227 12.5698969,8.93938144 13.2148454,8.93938144 C13.8597938,8.93938144 14.5047423,9.02474227 15.1117526,9.19546392 C16.5628866,8.20907216 17.1983505,8.41773196 17.1983505,8.41773196 C17.6156701,9.46103093 17.3501031,10.2387629 17.2742268,10.4284536 C17.7579381,10.9595876 18.0519588,11.6329897 18.0519588,12.4676289 C18.0519588,15.3793814 16.2783505,16.0243299 14.5901031,16.2140206 C14.8651546,16.451134 15.102268,16.9063918 15.102268,17.617732 C15.102268,18.6325773 15.0927835,19.4482474 15.0927835,19.7043299 C15.0927835,19.9035052 15.2350515,20.1406186 15.614433,20.0647423 C18.6115464,19.0593814 20.7835052,16.2140206 20.7835052,12.8659794 C20.7835052,8.67381443 17.3880412,5.27835052 13.1958763,5.27835052 Z" id="GitHub-Logo" fill="#C4B87F"></path>
            </g>
            <g id="Mustache" transform="translate(51.184005, 123.481412)" fill-rule="nonzero">
                <g id="Group">
                    <path d="M44.6260544,16.5548266 C36.8294508,16.5548266 31.2411172,12.4420319 29.3884161,9.67665604 L28.7910028,8.78413496 L28.1935895,9.67665604 C26.3408885,12.4420319 20.7525548,16.5548266 12.9559513,16.5548266 C4.72172446,16.5548266 0.71977507,13.0739944 0.71977507,5.91223243 C0.71977507,2.32487348 4.42517713,2.14349016 5.16942455,2.14349016 C5.27019306,2.14349016 5.36952202,2.14924836 5.46453233,2.15932521 C5.45013683,2.15932521 5.43430178,2.15932521 5.42134583,2.15932521 C3.40885473,2.15932521 2.15932521,3.53841425 2.15932521,5.75820056 C2.15932521,7.33738707 3.5484911,10.7966261 7.6771209,10.7966261 C11.5653458,10.7966261 14.6474227,8.76398126 17.6272915,6.79899531 C20.1220319,5.1535895 22.4785754,3.59887535 24.9517226,3.59887535 C26.198373,3.59887535 26.931104,4.20492596 27.7789991,4.90598688 C27.9690197,5.06289784 28.1576007,5.21980881 28.35194,5.36952202 L28.7910028,5.70637676 L29.2300656,5.36952202 C29.4258444,5.21980881 29.6144255,5.06289784 29.8030066,4.90598688 C30.6509016,4.20492596 31.3836326,3.59887535 32.630283,3.59887535 C35.1034302,3.59887535 37.4585342,5.1535895 39.9547142,6.79899531 C42.9345829,8.76542081 46.0166598,10.7966261 49.9048847,10.7966261 C54.0335145,10.7966261 55.4226804,7.33738707 55.4226804,5.75820056 C55.4226804,3.53841425 54.1731509,2.15932521 52.1606598,2.15932521 C52.1462643,2.15932521 52.1304292,2.15932521 52.1174733,2.15932521 C52.2124836,2.14924836 52.3118126,2.14349016 52.4125811,2.14349016 C53.1568285,2.14349016 56.8622306,2.32487348 56.8622306,5.91223243 C56.8622306,13.0739944 52.8602812,16.5548266 44.6260544,16.5548266 Z" id="Shape" fill="#B27354"></path>
                    <path d="M32.630283,4.31865042 C34.8874977,4.31865042 37.1562287,5.81578257 39.5588379,7.39928772 C42.4840037,9.32828491 45.8007273,11.5164011 49.9048847,11.5164011 C54.5114452,11.5164011 56.1007085,7.6656045 56.1424555,5.83017807 C56.1424555,5.85752952 56.1424555,5.88488097 56.1424555,5.91223243 C56.1424555,12.6824367 52.483119,15.8350515 44.6260544,15.8350515 C37.1101631,15.8350515 31.753597,11.9122774 29.987269,9.27502156 L28.7910028,7.49141893 L27.5947366,9.27646111 C25.8284086,11.9122774 20.4718425,15.8350515 12.9559513,15.8350515 C5.0988866,15.8350515 1.43955014,12.6824367 1.43955014,5.91223243 C1.43955014,5.88488097 1.43955014,5.85752952 1.44098969,5.83017807 C1.48129709,7.6656045 3.072,11.5164011 7.6771209,11.5164011 C11.7812784,11.5164011 15.0965623,9.32972446 18.0231678,7.39928772 C20.4257769,5.81578257 22.6959475,4.31865042 24.9517226,4.31865042 C25.8931884,4.31865042 26.4387779,4.73180131 27.3197826,5.46021368 C27.5155614,5.62288285 27.7113402,5.78411246 27.9128772,5.93814433 L28.7910028,6.6147329 L29.6691284,5.93958388 C29.8706654,5.78555201 30.0664442,5.62288285 30.2622231,5.46165323 C31.1432277,4.73180131 31.6888172,4.31865042 32.630283,4.31865042 Z M52.4125811,1.42371509 C49.7278201,1.42371509 48.9447048,4.31865042 48.9447048,4.31865042 C48.9447048,4.31865042 49.8804124,2.87910028 52.1606598,2.87910028 C54.46394,2.87910028 54.7029053,4.89447048 54.7029053,5.75820056 C54.7029053,6.62193065 53.8708454,10.076851 49.9048847,10.076851 C42.9230665,10.076851 38.3021106,2.87910028 32.630283,2.87910028 C30.8135708,2.87910028 29.8893796,3.95300469 28.7910028,4.79802062 C27.6926261,3.95300469 26.7684349,2.87910028 24.9517226,2.87910028 C19.279895,2.87910028 14.6589391,10.076851 7.6771209,10.076851 C3.71116026,10.076851 2.87910028,6.62193065 2.87910028,5.75820056 C2.87910028,4.89447048 3.1180656,2.87910028 5.42134583,2.87910028 C7.70159325,2.87910028 8.63730084,4.31865042 8.63730084,4.31865042 C8.63730084,4.31865042 7.85418557,1.42371509 5.16942455,1.42371509 C2.63725586,1.42371509 0,2.72938707 0,5.91223243 C0,13.0106542 3.71116026,17.2746017 12.9559513,17.2746017 C20.6863355,17.2746017 26.6503918,13.2712127 28.7910028,10.076851 C30.9316139,13.2712127 36.8956701,17.2746017 44.6260544,17.2746017 C53.8708454,17.2746017 57.5820056,12.8580619 57.5820056,5.91223243 C57.5820056,2.72938707 54.9447498,1.42371509 52.4125811,1.42371509 Z" id="Shape" fill="#704E34"></path>
                </g>
                <path d="M56.0474452,7.59794564 C56.0316101,7.23805811 56.0330497,6.87673102 56.0647198,6.51396439 C55.8631828,7.61378069 55.2369784,9.04469353 54.0076026,10.0970047 C52.8502043,11.670433 50.6030665,12.8882924 44.6260544,12.8882924 C37.1101631,12.8882924 30.5573308,9.83500656 28.7910028,7.1977507 L28.7910028,7.49141893 L29.987269,9.27646111 C31.753597,11.9122774 37.1101631,15.8350515 44.6260544,15.8350515 C51.7950141,15.8350515 55.4586692,13.2006748 56.0474452,7.59794564 Z" id="Shape" fill="#935C41" opacity="0.5"></path>
                <path d="M1.53456045,7.59794564 C1.5503955,7.23805811 1.54895595,6.87673102 1.51728585,6.51396439 C1.71882287,7.61378069 2.34502718,9.04469353 3.574403,10.0970047 C4.73180131,11.6689934 6.97893908,12.8882924 12.9559513,12.8882924 C20.4718425,12.8882924 27.0246748,9.83500656 28.7910028,7.1977507 L28.7910028,7.49141893 L27.5947366,9.27646111 C25.8284086,11.9122774 20.4718425,15.8350515 12.9559513,15.8350515 C5.78699157,15.8350515 2.12333646,13.2006748 1.53456045,7.59794564 Z" id="Shape" fill-opacity="0.5" fill="#935C41"></path>
            </g>
        </g>
    </g>
</svg>