<?xml version="1.0" encoding="UTF-8"?>
<svg width="512px" height="512px" viewBox="0 0 512 512" version="1.1" xmlns="http://www.w3.org/2000/svg" xmlns:xlink="http://www.w3.org/1999/xlink">
    <!-- Generator: Sketch 51.3 (57544) - http://www.bohemiancoding.com/sketch -->
    <title>trafico</title>
    <desc>Created with Sketch.</desc>
    <defs>
        <path d="M101.436943,289.47852 C89.7348087,289.47852 78.8810558,284.618768 70.8675373,275.802975 L70.0837063,274.945372 L69.0047861,274.558068 C30.4864123,260.854859 4.61077015,224.2269 4.61077015,183.430806 L4.61077015,48.6211084 C4.61077015,24.5067805 24.2249864,4.88334272 48.3393143,4.88334272 L154.534572,4.88334272 C178.6489,4.88334272 198.263117,24.497559 198.263117,48.6211084 L198.263117,183.430806 C198.263117,224.2269 172.387475,260.854859 133.878322,274.558068 L132.79018,274.945372 L132.00635,275.802975 C123.992831,284.618768 113.139078,289.47852 101.436943,289.47852 Z" id="path-1"></path>
        <filter x="-5.2%" y="-3.5%" width="110.3%" height="107.0%" filterUnits="objectBoundingBox" id="filter-2">
            <feOffset dx="0" dy="-20" in="SourceAlpha" result="shadowOffsetInner1"></feOffset>
            <feComposite in="shadowOffsetInner1" in2="SourceAlpha" operator="arithmetic" k2="-1" k3="1" result="shadowInnerInner1"></feComposite>
            <feColorMatrix values="0 0 0 0 0.907206633   0 0 0 0 0.753013549   0 0 0 0 0.464395725  0 0 0 1 0" type="matrix" in="shadowInnerInner1"></feColorMatrix>
        </filter>
        <linearGradient x1="50%" y1="0%" x2="50%" y2="100%" id="linearGradient-3">
            <stop stop-color="#E1D385" offset="0%"></stop>
            <stop stop-color="#FFEEA3" offset="100%"></stop>
        </linearGradient>
    </defs>
    <g id="Page-1" stroke="none" stroke-width="1" fill="none" fill-rule="evenodd">
        <g id="trafico">
            <circle id="BG" cx="256" cy="256" r="256"></circle>
            <rect id="Rectangular-BG" fill="#FFFFFF" x="0" y="0" width="512" height="512"></rect>
            <g id="Mascot" transform="translate(89.125926, 92.918519)">
                <g id="Ears" transform="translate(46.942179, 175.675985)" fill-rule="nonzero">
                    <path d="M203.796041,69.1615523 C186.514874,69.1615523 172.452025,54.683734 172.452025,36.8861612 C172.452025,19.0885884 186.514874,4.61077015 203.796041,4.61077015 C226.36115,4.61077015 235.149278,10.2082451 235.149278,24.593848 C235.149278,40.0030419 228.592763,69.1615523 203.796041,69.1615523 Z M35.9640072,69.1615523 C11.1672853,69.1615523 4.61077015,40.0030419 4.61077015,24.593848 C4.61077015,10.2174667 13.3988981,4.61077015 35.9640072,4.61077015 C53.2451737,4.61077015 67.3080227,19.0885884 67.3080227,36.8861612 C67.3080227,54.683734 53.2451737,69.1615523 35.9640072,69.1615523 Z" id="Shape" fill="#DEB974"></path>
                    <path d="M203.796041,9.22154031 C228.491326,9.22154031 230.538508,16.4881141 230.538508,24.593848 C230.538508,38.4077154 224.950254,64.5507822 203.796041,64.5507822 C189.050798,64.5507822 177.053574,52.1385889 177.053574,36.8861612 C177.053574,21.6337336 189.050798,9.22154031 203.796041,9.22154031 Z M35.9640072,9.22154031 C50.7092502,9.22154031 62.7064741,21.6337336 62.7064741,36.8861612 C62.7064741,52.1385889 50.7092502,64.5507822 35.9640072,64.5507822 C14.8097937,64.5507822 9.22154031,38.4077154 9.22154031,24.593848 C9.22154031,16.4881141 11.2687223,9.22154031 35.9640072,9.22154031 Z M203.796041,0 C183.932843,0 167.832034,16.5157787 167.832034,36.8861612 C167.832034,57.2565438 183.932843,73.7723225 203.796041,73.7723225 C230.566172,73.7723225 239.760048,44.9642305 239.760048,24.593848 C239.760048,4.22346546 223.659239,0 203.796041,0 Z M35.9640072,0 C16.1008094,0 0,4.22346546 0,24.593848 C0,44.9642305 9.26764801,73.7723225 35.9640072,73.7723225 C55.827205,73.7723225 71.9280144,57.2565438 71.9280144,36.8861612 C71.9280144,16.5157787 55.827205,0 35.9640072,0 Z" id="Shape" fill="#967A44"></path>
                </g>
                <g id="Face" transform="translate(65.385260, 56.795961)" fill-rule="nonzero">
                    <g id="Shape">
                        <use fill="#F5CE85" xlink:href="#path-1"></use>
                        <use fill="black" fill-opacity="1" filter="url(#filter-2)" xlink:href="#path-1"></use>
                    </g>
                    <path d="M154.534572,9.50333441 C176.103755,9.50333441 193.652346,27.0519256 193.652346,48.6211084 L193.652346,183.430806 C193.652346,222.281155 169.012391,257.157021 132.329103,270.223944 L130.15282,270.998553 L128.603601,272.704538 C121.456907,280.542847 111.811176,284.86775 101.436943,284.86775 C91.0627105,284.86775 81.4169794,280.542847 74.2702856,272.704538 L72.7210669,270.998553 L70.5447834,270.223944 C33.861496,257.157021 9.22154031,222.281155 9.22154031,183.430806 L9.22154031,48.6211084 C9.22154031,27.0519256 26.7701315,9.50333441 48.3393143,9.50333441 L154.534572,9.50333441 Z M154.534572,0.281794103 L48.3393143,0.281794103 C21.6429551,0.281794103 0,21.9247492 0,48.6211084 L0,183.430806 C0,227.509769 28.1718056,264.921558 67.4555674,278.910635 C75.8840552,288.169061 87.9181653,294.08929 101.436943,294.08929 C114.955721,294.08929 126.989832,288.169061 135.418319,278.910635 C174.702081,264.921558 202.873887,227.509769 202.873887,183.430806 L202.873887,48.6211084 C202.873887,21.9247492 181.230932,0.281794103 154.534572,0.281794103 Z" id="Shape" fill="#967A44"></path>
                </g>
                <g id="Hair" transform="translate(46.942179, 83.460582)" fill-rule="nonzero">
                    <path d="M216.706197,124.490794 L216.706197,55.3292419 C216.706197,46.2736893 213.72764,36.9322689 207.816632,27.4340824 C222.2299,33.1237728 235.149278,41.9580084 235.149278,55.3292419 C235.149278,89.5319349 222.598762,116.670928 218.559727,124.490794 L216.706197,124.490794 Z M21.0343334,124.490794 C17.0414065,117.491645 4.61077015,92.7410309 4.61077015,55.3292419 C4.61077015,33.2159882 59.377498,15.224763 126.703964,15.224763 C133.739999,15.224763 140.656154,15.4368585 147.3971,15.8518278 C132.356768,24.4186387 110.944351,32.2753911 82.9938628,32.2753911 C54.0105616,32.2753911 23.0538508,45.6005168 23.0538508,82.9938628 L23.0538508,124.490794 L21.0343334,124.490794 Z M181.000393,10.5586637 C178.252374,10.0514789 175.430583,9.59040192 172.544241,9.16621107 C173.79837,8.04118315 174.858847,7.03603526 175.734894,6.16921047 C177.145789,7.2757953 178.953211,8.75124175 181.000393,10.5586637 Z" id="Shape" fill="#A6714E"></path>
                    <path d="M126.703964,19.8355332 C127.128155,19.8355332 127.552346,19.8355332 127.976536,19.8355332 C115.675002,24.4094172 100.69922,27.6646209 82.9938628,27.6646209 C43.1752517,27.6646209 18.4430806,48.8649421 18.4430806,82.9938628 L18.4430806,107.892022 C13.9798551,96.08845 9.22154031,78.1525541 9.22154031,55.3292419 C9.22154031,38.5460385 57.4686392,19.8355332 126.703964,19.8355332 Z M218.006434,37.6238845 C225.153128,42.1239961 230.538508,47.9520096 230.538508,55.3292419 C230.538508,75.9762706 225.807858,93.9859388 221.316967,106.435018 L221.316967,55.3292419 C221.316967,49.4920068 220.210383,43.5809995 218.006434,37.6238845 Z M175.209266,0 C175.209266,0 170.543166,5.56981035 161.238632,12.3753071 C173.503281,13.6847658 185.1132,15.7227262 195.450547,18.535296 C185.675714,7.25735222 175.209266,0 175.209266,0 Z M126.703964,10.6139929 C64.5692252,10.6139929 0,26.7885746 0,55.3292419 C0,101.842691 18.4430806,129.101564 18.4430806,129.101564 L27.6646209,129.101564 C27.6646209,129.101564 27.6646209,95.7933607 27.6646209,82.9938628 C27.6646209,49.0770375 54.9880449,36.8861612 82.9938628,36.8861612 C120.479424,36.8861612 146.594826,23.0907369 161.238632,12.3753071 C150.117455,11.1949499 138.452206,10.6139929 126.703964,10.6139929 Z M195.450547,18.535296 C204.035801,28.4300088 212.095427,41.4231591 212.095427,55.3292419 C212.095427,69.4105339 212.095427,129.101564 212.095427,129.101564 L221.316967,129.101564 C221.316967,129.101564 239.760048,97.7114411 239.760048,55.3292419 C239.760048,37.7345429 221.676607,25.6635467 195.450547,18.535296 Z" id="Shape" fill="#7A4F34"></path>
                </g>
                <g id="Eyes" transform="translate(107.169984, 198.551941)" fill="#36404D" fill-rule="nonzero">
                    <circle id="Eye-right" cx="105.370691" cy="14.3994352" r="13.8323105"></circle>
                    <circle id="Eye-left" cx="13.9337474" cy="14.3994352" r="13.8323105"></circle>
                </g>
                <g id="Hat" transform="translate(0.834477, 0.466719)" fill-rule="nonzero">
                    <path d="M50.3403885,124.490794 C48.3485358,112.604229 38.8042416,104.646039 29.5458151,96.9276102 C17.9727821,87.2726575 6.02166582,77.3133939 4.73065018,58.7227687 C40.0860357,48.0165604 68.1471829,36.2775396 90.832172,26.7885746 C121.604452,13.9153043 143.856029,4.61077015 165.987726,4.61077015 C188.119422,4.61077015 210.361778,13.9153043 241.143279,26.7885746 C263.828268,36.2775396 291.889415,48.0073388 327.244801,58.7227687 C325.944564,77.3133939 313.993448,87.2726575 302.429636,96.9276102 C293.171209,104.646039 283.626915,112.604229 281.635063,124.490794 L50.3403885,124.490794 Z" id="Shape" fill="#7AAAE8"></path>
                    <path d="M26.3248769,94.2267985 C58.6920153,81.7697697 110.537855,73.6985501 168.975505,73.6985501 C224.961915,73.6985501 274.89792,81.1068563 307.451227,92.6826444 C305.79166,94.1209622 304.106576,95.527486 302.429636,96.9276102 C293.171209,104.646039 283.626915,112.604229 281.635063,124.490794 L50.3403885,124.490794 C48.3485358,112.604229 38.8042416,104.646039 29.5458151,96.9276102 C28.472486,96.0321714 27.3959047,95.1341151 26.3248769,94.2267985 Z" id="Combined-Shape" fill="#6D9DDB" opacity="0.7"></path>
                    <path d="M165.987726,9.22154031 C187.197268,9.22154031 209.079983,18.3785298 239.363522,31.0397047 C261.356895,40.2335804 288.376009,51.5391888 322.228283,62.005637 C319.867569,76.3727968 309.926748,84.6629616 299.469522,93.3865387 C290.902711,100.533232 281.413746,108.445314 277.974111,119.880024 L53.9921185,119.880024 C50.552484,108.445314 41.0727405,100.533232 32.496708,93.3865387 C22.0487029,84.6721831 12.0986609,76.3727968 9.73794657,62.005637 C43.590221,51.5391888 70.6093341,40.2335804 92.6027078,31.0397047 C122.895468,18.3785298 144.778183,9.22154031 165.987726,9.22154031 Z M165.987726,0 C125.099416,0 84.2664353,30.3019815 0,55.3292419 C0,96.9644963 46.1077015,101.547602 46.1077015,129.101564 L285.86775,129.101564 C285.86775,101.547602 331.975451,96.9644963 331.975451,55.3292419 C247.709016,30.3019815 206.876035,0 165.987726,0 Z" id="Shape" fill="#4E7AB5"></path>
                </g>
                <g id="Hat-shade" transform="translate(46.942179, 115.108908)" fill-rule="nonzero">
                    <ellipse id="Oval" fill="#3C5A7D" cx="119.880024" cy="42.1239961" rx="119.880024" ry="36.8861612"></ellipse>
                    <path d="M235,25.6133804 C238.09869,28.5818085 239.760048,31.7208592 239.760048,34.9680809 C239.760048,53.4248087 186.087933,68.3869429 119.880024,68.3869429 C53.6721149,68.3869429 1.13686838e-13,53.4248087 1.13686838e-13,34.9680809 C1.13686838e-13,31.6380202 1.74720386,28.42172 5,25.3865343 L5,10 L40.1959054,10 C61.3765084,4.74315097 89.2902727,1.54921877 119.880024,1.54921877 C150.469775,1.54921877 178.38354,4.74315097 199.564143,10 L235,10 L235,25.6133804 Z" id="Combined-Shape" fill="#3E638F"></path>
                    <rect id="Rectangle-path" fill="#7999BC" x="4.61077015" y="7" width="230.538508" height="29.513226"></rect>
                    <path d="M230.538508,32.9024558 L9.22154031,32.9024558 L9.22154031,23.2871653 C9.22154031,16.6597483 14.5941233,11.2871653 21.2215403,11.2871653 L217.538508,11.2871653 C224.718209,11.2871653 230.538508,17.1074636 230.538508,24.2871653 L230.538508,32.9024558 Z M0,16.6639509 L0,40.501005 L239.760048,40.501005 L239.760048,16.6639509 C239.760048,7.8273949 232.596604,0.663950902 223.760048,0.663950902 L16,0.663950902 C7.163444,0.663950902 -1.082166e-15,7.8273949 0,16.6639509 Z" id="Shape" fill="#3E638F"></path>
                </g>
                <g id="Plate" transform="translate(139.143750, 47.026276)">
                    <path d="M55.3430742,40.3073527 C55.3430742,46.9549029 27.6784532,53.5494846 27.6784532,53.5494846 C27.6784532,53.5494846 0.0138323105,46.7342007 0.0138323105,40.3073527 C0.0138323105,28.3985541 0.0138323105,16.4897556 0.0138323105,4.58095704 L0.0138323105,4.58095704 C0.0138323105,2.37181804 1.80469331,0.580957039 4.01383231,0.580957039 L51.3430742,0.580957039 C53.5522132,0.580957039 55.3430742,2.37181804 55.3430742,4.58095704 C55.3430742,16.4897556 55.3430742,28.3985541 55.3430742,40.3073527 Z" id="Shape" fill="#EADEAA" fill-rule="nonzero"></path>
                    <path d="M0.0138323105,27.8926366 C9.971219,27.3972384 20.2132705,27.1389931 30.6662323,27.1389931 C39.0398298,27.1389931 47.2780819,27.3047142 55.3430742,27.6253136 L55.3430742,41.0450759 C55.3430742,47.9888958 27.6784532,54.8773864 27.6784532,54.8773864 C27.6784532,54.8773864 0.0138323105,47.7583573 0.0138323105,41.0450759 L0.0138323105,27.8926366 Z" id="Glow" fill="url(#linearGradient-3)" fill-rule="nonzero" opacity="0.7"></path>
                    <path d="M27.3879747,10.9551899 C18.6871575,10.9551899 11.6398893,18.0024581 11.6398893,26.7032753 C11.6398893,33.6718032 16.1477787,39.5576501 22.4076427,41.6442714 C23.195047,41.7820672 23.4903236,41.3096246 23.4903236,40.8962374 C23.4903236,40.5222203 23.4706385,39.2820586 23.4706385,37.9631565 C19.513932,38.6915054 18.4903064,36.9985862 18.1753447,36.1127564 C17.9981788,35.659999 17.2304596,34.2623564 16.561166,33.8883393 C16.009983,33.5930627 15.2225787,32.8647138 16.5414809,32.8450287 C17.7816426,32.8253436 18.6674724,33.9867649 18.962749,34.4592074 C20.3800767,36.8411054 22.643864,36.1718117 23.5493789,35.7584245 C23.6871746,34.7347989 24.1005619,34.0458202 24.5533193,33.6521181 C21.0493703,33.2584159 17.3879404,31.9001436 17.3879404,25.8765009 C17.3879404,24.1638966 17.9981788,22.7465689 19.0021192,21.6442029 C18.8446384,21.2505008 18.2934554,19.636322 19.1596001,17.4709602 C19.1596001,17.4709602 20.4785022,17.057573 23.4903236,19.085139 C24.7501704,18.7308071 26.0887577,18.5536411 27.4273449,18.5536411 C28.7659322,18.5536411 30.1045195,18.7308071 31.3643663,19.085139 C34.3761876,17.0378879 35.6950898,17.4709602 35.6950898,17.4709602 C36.5612345,19.636322 36.0100515,21.2505008 35.8525707,21.6442029 C36.8565111,22.7465689 37.4667494,24.1442115 37.4667494,25.8765009 C37.4667494,31.9198287 33.7856344,33.2584159 30.2816854,33.6521181 C30.8525535,34.1442457 31.3446812,35.0891309 31.3446812,36.5655139 C31.3446812,38.6718203 31.3249961,40.3647395 31.3249961,40.8962374 C31.3249961,41.3096246 31.6202727,41.8017523 32.407677,41.6442714 C38.6281707,39.5576501 43.1360602,33.6521181 43.1360602,26.7032753 C43.1360602,18.0024581 36.0887919,10.9551899 27.3879747,10.9551899 Z" id="GitHub-Logo" fill="#C4B87F"></path>
                </g>
                <g id="Mustache" transform="translate(107.066622, 256.751767)" fill-rule="nonzero">
                    <g id="Group">
                        <path d="M92.6211509,34.3594592 C76.4393395,34.3594592 64.8407812,25.8233744 60.9955095,20.0838508 L59.7555812,18.2314278 L58.5156529,20.0838508 C54.6703812,25.8233744 43.0718229,34.3594592 26.8900115,34.3594592 C9.79991532,34.3594592 1.49388953,27.1350094 1.49388953,12.2708086 C1.49388953,4.82526318 9.18443283,4.44880302 10.7291146,4.44880302 C10.9382591,4.44880302 11.1444159,4.46075414 11.3416093,4.48166859 C11.3117315,4.48166859 11.278866,4.48166859 11.2519759,4.48166859 C7.07506081,4.48166859 4.48166859,7.34396093 4.48166859,11.9511162 C4.48166859,15.2287099 7.36487538,22.4083429 15.9338257,22.4083429 C24.003817,22.4083429 30.4006519,18.1895989 36.5853546,14.1112805 C41.7631757,10.696249 46.65417,7.46944765 51.7871744,7.46944765 C54.3745911,7.46944765 55.8953707,8.72730263 57.6551725,10.182351 C58.0495594,10.508019 58.4409584,10.8336869 58.8443086,11.1444159 L59.7555812,11.8435562 L60.6668538,11.1444159 C61.0731918,10.8336869 61.4645908,10.508019 61.8559899,10.182351 C63.6157917,8.72730263 65.1365713,7.46944765 67.723988,7.46944765 C72.8569924,7.46944765 77.7449989,10.696249 82.9258078,14.1112805 C89.1105105,18.1925867 95.5073454,22.4083429 103.577337,22.4083429 C112.146287,22.4083429 115.029494,15.2287099 115.029494,11.9511162 C115.029494,7.34396093 112.436102,4.48166859 108.259186,4.48166859 C108.229309,4.48166859 108.196443,4.48166859 108.169553,4.48166859 C108.366747,4.46075414 108.572903,4.44880302 108.782048,4.44880302 C110.32673,4.44880302 118.017273,4.82526318 118.017273,12.2708086 C118.017273,27.1350094 109.711247,34.3594592 92.6211509,34.3594592 Z" id="Shape" fill="#B27354"></path>
                        <path d="M67.723988,8.96333718 C72.4088255,8.96333718 77.1175653,12.0706274 82.1041686,15.3571844 C88.1753356,19.3608083 95.0591786,23.9022325 103.577337,23.9022325 C113.13823,23.9022325 116.436738,15.9099235 116.523383,12.1005052 C116.523383,12.157273 116.523383,12.2140408 116.523383,12.2708086 C116.523383,26.3223335 108.928449,32.8655697 92.6211509,32.8655697 C77.0219564,32.8655697 65.9044305,24.7238717 62.2384256,19.2502605 L59.7555812,15.5484022 L57.2727368,19.2532483 C53.6067319,24.7238717 42.489206,32.8655697 26.8900115,32.8655697 C10.5827134,32.8655697 2.98777906,26.3223335 2.98777906,12.2708086 C2.98777906,12.2140408 2.98777906,12.157273 2.99076684,12.1005052 C3.07442465,15.9099235 6.37592051,23.9022325 15.9338257,23.9022325 C24.4519838,23.9022325 31.332839,19.3637961 37.4069938,15.3571844 C42.3935971,12.0706274 47.1053247,8.96333718 51.7871744,8.96333718 C53.741182,8.96333718 54.8735502,9.82082977 56.702071,11.332646 C57.108409,11.670265 57.5147469,12.0048963 57.933036,12.3245886 L59.7555812,13.7288448 L61.5781264,12.3275764 C61.9964155,12.007884 62.4027534,11.670265 62.8090914,11.3356338 C64.6376122,9.82082977 65.7699804,8.96333718 67.723988,8.96333718 Z M108.782048,2.95491349 C103.20984,2.95491349 101.584488,8.96333718 101.584488,8.96333718 C101.584488,8.96333718 103.526544,5.97555812 108.259186,5.97555812 C113.039633,5.97555812 113.535604,10.1584488 113.535604,11.9511162 C113.535604,13.7437837 111.808668,20.9144534 103.577337,20.9144534 C89.0866082,20.9144534 79.4958374,5.97555812 67.723988,5.97555812 C63.9534108,5.97555812 62.0352566,8.2044413 59.7555812,9.95826761 C57.4759058,8.2044413 55.5577516,5.97555812 51.7871744,5.97555812 C40.015325,5.97555812 30.4245542,20.9144534 15.9338257,20.9144534 C7.70249442,20.9144534 5.97555812,13.7437837 5.97555812,11.9511162 C5.97555812,10.1584488 6.47152944,5.97555812 11.2519759,5.97555812 C15.984618,5.97555812 17.9266744,8.96333718 17.9266744,8.96333718 C17.9266744,8.96333718 16.3013226,2.95491349 10.7291146,2.95491349 C5.47361124,2.95491349 0,5.6648291 0,12.2708086 C0,27.0035471 7.70249442,35.8533487 26.8900115,35.8533487 C42.9343851,35.8533487 55.3127537,27.5443352 59.7555812,20.9144534 C64.1984087,27.5443352 76.5767773,35.8533487 92.6211509,35.8533487 C111.808668,35.8533487 119.511162,26.6868426 119.511162,12.2708086 C119.511162,5.6648291 114.037551,2.95491349 108.782048,2.95491349 Z" id="Shape" fill="#704E34"></path>
                    </g>
                    <path d="M116.32619,15.7694979 C116.293324,15.0225531 116.296312,14.2726206 116.362043,13.5197002 C115.943754,15.8023634 114.64407,18.7722158 112.092507,20.9562823 C109.690333,24.2219248 105.02641,26.7495859 92.6211509,26.7495859 C77.0219564,26.7495859 63.4215861,20.4125065 59.7555812,14.9388953 L59.7555812,15.5484022 L62.2384256,19.2532483 C65.9044305,24.7238717 77.0219564,32.8655697 92.6211509,32.8655697 C107.500291,32.8655697 115.104188,27.397934 116.32619,15.7694979 Z" id="Shape" fill="#935C41" opacity="0.5"></path>
                    <path d="M3.18497248,15.7694979 C3.21783805,15.0225531 3.21485027,14.2726206 3.14911913,13.5197002 C3.5674082,15.8023634 4.86709209,18.7722158 7.41865541,20.9562823 C9.82082977,24.2189371 14.4847529,26.7495859 26.8900115,26.7495859 C42.489206,26.7495859 56.0895763,20.4125065 59.7555812,14.9388953 L59.7555812,15.5484022 L57.2727368,19.2532483 C53.6067319,24.7238717 42.489206,32.8655697 26.8900115,32.8655697 C12.0108718,32.8655697 4.40697411,27.397934 3.18497248,15.7694979 Z" id="Shape" fill-opacity="0.5" fill="#935C41"></path>
                </g>
            </g>
        </g>
    </g>
</svg>